<svg viewBox="0 0 32 32" xmlns="http://www.w3.org/2000/svg">
  <path fill="#E17726" d="M30.6 4.6l-5.3 1.3L23.8 0l-7.5.3L8.9 0 7.3 5.9 2 4.6l1.9 12.5L16.3 30 28.7 17.1z"/>
  <path fill="#E2761B" d="M23.8 0l1 6.3 5.8-1.4zM7.3 5.9L8.9 0 2 4.6z"/>
  <path fill="#D7C1B3" d="M10.5 13.9l-3.3 5.1 3.8 3.1 2.2-4.5zm11.7 0l-2.6 3.7 2.2 4.5 3.8-3.1z"/>
  <path fill="#233447" d="M10.5 13.9L16.3 10.9l5.8 3-2.9 3-2.9-1-2.9 1z"/>
  <path fill="#CC6119" d="M10.5 13.9l-2.2-2.1L2 4.6l1.9 12.5 3.3-3.2zM21.7 11.8l-2.2 2.1 2.6 3.7 3.3 3.2L30.6 4.6l-5.8 1.4z"/>
</svg>
